<?xml version="1.0" standalone="no"?>
<!DOCTYPE svg PUBLIC "-//W3C//DTD SVG 20010904//EN"
 "http://www.w3.org/TR/2001/REC-SVG-20010904/DTD/svg10.dtd">
<svg version="1.0" xmlns="http://www.w3.org/2000/svg"
 width="500.000000pt" height="500.000000pt" viewBox="0 0 500.000000 500.000000"
 preserveAspectRatio="xMidYMid meet">
<metadata>
Created by potrace 1.14, written by Peter Selinger 2001-2017
</metadata>
<g transform="translate(0.000000,500.000000) scale(0.100000,-0.100000)"
fill="#000000" stroke="none">
<path d="M2347 4092 c-3 -9 -4 -584 -3 -1277 l1 -1260 143 -2 c78 -1 148 0
155 3 11 4 13 244 13 1277 l-1 1272 -152 2 c-136 2 -152 0 -156 -15z"/>
<path d="M2175 4071 c-433 -109 -795 -466 -915 -904 -11 -41 -23 -88 -25 -104
-2 -15 -7 -48 -11 -73 -12 -82 -4 -356 12 -381 2 -4 6 -22 9 -40 2 -19 14 -65
25 -104 12 -38 24 -79 27 -89 14 -47 89 -188 141 -266 75 -112 234 -271 345
-345 49 -32 137 -79 195 -105 98 -44 241 -90 277 -90 13 0 15 24 15 154 l0
155 -57 16 c-318 93 -578 367 -662 698 l-19 72 369 3 369 2 0 155 0 155 -370
0 -369 0 6 33 c12 63 56 193 86 252 119 237 336 421 590 501 l57 18 0 153 c0
116 -3 153 -12 152 -7 0 -44 -8 -83 -18z"/>
<path d="M2730 3936 l0 -155 58 -16 c252 -73 486 -279 601 -529 114 -248 115
-561 3 -808 -65 -143 -192 -299 -319 -390 -71 -52 -203 -118 -285 -144 l-58
-18 0 -153 c0 -118 3 -153 13 -153 24 0 182 49 256 80 88 36 226 117 296 173
235 191 416 488 464 762 19 110 21 137 22 224 1 222 -53 444 -156 635 -129
242 -367 458 -621 565 -72 30 -234 81 -260 81 -11 0 -14 -29 -14 -154z"/>
<path d="M1740 1658 c143 -215 210 -319 210 -328 0 -6 3 -10 8 -10 4 0 16 -15
26 -32 12 -22 99 -92 268 -213 137 -99 255 -180 261 -179 7 1 89 58 182 128
266 198 315 236 329 259 7 12 44 72 81 132 38 61 97 156 132 213 l64 103 -58
-39 c-105 -71 -304 -166 -393 -187 -162 -39 -220 -47 -340 -48 -79 0 -184 8
-220 18 -8 2 -26 6 -40 9 -147 26 -349 108 -476 192 -32 22 -64 43 -71 47 -7
4 10 -25 37 -65z"/>
</g>
</svg>
